<?xml version="1.0" encoding="UTF-8"?>
<svg width="202px" height="202px" viewBox="0 0 202 202" version="1.1" xmlns="http://www.w3.org/2000/svg" xmlns:xlink="http://www.w3.org/1999/xlink">
    <title>Berlin Software Verification Meetup</title>
        <g>
            <path d="M0,202 L202,202 L202,0 L0,0 L0,202 Z M2,200 L2,2 L200,2 L200,200 L2,200 Z" id="Stroke-1"></path>
            <path d="M24.988,59.32 L29.86,59.32 C31.8386766,59.32 33.257329,59.8099951 34.116,60.79 C34.974671,61.7700049 35.404,63.1653243 35.404,64.976 C35.404,66.2080062 35.1800022,67.2626623 34.732,68.14 C34.2839978,69.0173377 33.5466718,69.5586656 32.52,69.764 C33.7520062,70.1000017 34.6293307,70.7813282 35.152,71.808 C35.6746693,72.8346718 35.936,74.047993 35.936,75.448 C35.936,77.4826768 35.5393373,79.0833275 34.746,80.25 C33.9526627,81.4166725 32.5666766,82 30.588,82 L24.988,82 L24.988,59.32 Z M30.196,69.092 C31.4093394,69.092 32.2586642,68.7420035 32.744,68.042 C33.2293358,67.3419965 33.472,66.3200067 33.472,64.976 C33.472,64.0239952 33.3460013,63.2586696 33.094,62.68 C32.8419987,62.1013304 32.4033365,61.6720014 31.778,61.392 C31.1526635,61.1119986 30.2706724,60.972 29.132,60.972 L27.116,60.972 L27.116,69.092 L30.196,69.092 Z M30.168,80.404 C31.1386715,80.404 31.8899973,80.2313351 32.422,79.886 C32.9540027,79.5406649 33.3273323,79.0133369 33.542,78.304 C33.7566677,77.5946631 33.864,76.6426726 33.864,75.448 C33.864,72.3119843 32.6506788,70.744 30.224,70.744 L27.116,70.744 L27.116,80.404 L30.168,80.404 Z M39.016,59.32 L47.22,59.32 L47.22,60.972 L41.172,60.972 L41.172,69.484 L46.1,69.484 L46.1,71.052 L41.172,71.052 L41.172,80.404 L47.276,80.404 L47.276,82 L39.016,82 L39.016,59.32 Z M50.188,59.32 L55.312,59.32 C57.3466768,59.32 58.793329,59.8099951 59.652,60.79 C60.510671,61.7700049 60.94,63.2026572 60.94,65.088 C60.94,66.5253405 60.706669,67.710662 60.24,68.644 C59.773331,69.577338 58.9613391,70.1653321 57.804,70.408 L61.276,82 L59.204,82 L55.872,70.856 L52.316,70.856 L52.316,82 L50.188,82 L50.188,59.32 Z M55.2,69.288 C56.5626735,69.288 57.514664,68.9520034 58.056,68.28 C58.597336,67.6079966 58.868,66.5440073 58.868,65.088 C58.868,63.613326 58.6113359,62.5493366 58.098,61.896 C57.5846641,61.2426634 56.6373402,60.916 55.256,60.916 L52.316,60.916 L52.316,69.288 L55.2,69.288 Z M64.524,59.32 L66.652,59.32 L66.652,80.404 L73.092,80.404 L73.092,82 L64.524,82 L64.524,59.32 Z M75.276,59.32 L77.404,59.32 L77.404,82 L75.276,82 L75.276,59.32 Z M81.436,59.32 L82.976,59.32 L90.2,76.932 L90.2,59.32 L92.048,59.32 L92.048,82 L90.536,82 L83.284,64.192 L83.284,82 L81.436,82 L81.436,59.32 Z" id="BERLIN"></path>
            <path d="M30.7,114.336 C28.5346558,114.336 26.9246719,113.762006 25.87,112.614 C24.8153281,111.465994 24.250667,109.641346 24.176,107.14 L28.46,106.496 C28.4786668,107.933341 28.6513317,108.964664 28.978,109.59 C29.3046683,110.215336 29.7946634,110.528 30.448,110.528 C31.2880042,110.528 31.708,109.977339 31.708,108.876 C31.708,107.998662 31.5073353,107.24267 31.106,106.608 C30.7046647,105.97333 30.074671,105.292004 29.216,104.564 L27.256,102.856 C26.2853285,102.034663 25.5340027,101.162005 25.002,100.238 C24.4699973,99.3139954 24.204,98.2173397 24.204,96.948 C24.204,95.0439905 24.768661,93.5786718 25.898,92.552 C27.027339,91.5253282 28.5813234,91.012 30.56,91.012 C32.7066774,91.012 34.1673295,91.6373271 34.942,92.888 C35.7166705,94.1386729 36.1319997,95.659991 36.188,97.452 L31.876,97.984 C31.8386665,96.8079941 31.7313342,95.9633359 31.554,95.45 C31.3766658,94.9366641 30.9893363,94.68 30.392,94.68 C29.9626645,94.68 29.6313345,94.8619982 29.398,95.226 C29.1646655,95.5900018 29.048,95.9959978 29.048,96.444 C29.048,97.2093372 29.2206649,97.8533307 29.566,98.376 C29.9113351,98.8986693 30.4666628,99.4959966 31.232,100.168 L33.108,101.82 C34.2280056,102.772005 35.0959969,103.779995 35.712,104.844 C36.3280031,105.908005 36.636,107.167993 36.636,108.624 C36.636,109.688005 36.3886691,110.653996 35.894,111.522 C35.3993309,112.390004 34.7040045,113.075997 33.808,113.58 C32.9119955,114.084003 31.8760059,114.336 30.7,114.336 Z M45.568,114.336 C43.1226544,114.336 41.3773386,113.706006 40.332,112.446 C39.2866614,111.185994 38.764,109.324012 38.764,106.86 L38.764,98.432 C38.764,95.9679877 39.2866614,94.1153395 40.332,92.874 C41.3773386,91.6326605 43.1226544,91.012 45.568,91.012 C48.0320123,91.012 49.7913281,91.6373271 50.846,92.888 C51.9006719,94.1386729 52.428,95.9866544 52.428,98.432 L52.428,106.86 C52.428,109.324012 51.9006719,111.185994 50.846,112.446 C49.7913281,113.706006 48.0320123,114.336 45.568,114.336 Z M45.568,110.78 C46.2773369,110.78 46.7439989,110.542002 46.968,110.066 C47.1920011,109.589998 47.304,108.941337 47.304,108.12 L47.304,97.2 C47.304,96.3599958 47.1920011,95.706669 46.968,95.24 C46.7439989,94.773331 46.2773369,94.54 45.568,94.54 C44.8959966,94.54 44.4480011,94.7779976 44.224,95.254 C43.9999989,95.7300024 43.888,96.3786626 43.888,97.2 L43.888,108.12 C43.888,108.941337 43.9906656,109.589998 44.196,110.066 C44.4013344,110.542002 44.8586631,110.78 45.568,110.78 Z M55.48,91.32 L65.28,91.32 L65.28,94.708 L60.492,94.708 L60.492,100.42 L64.664,100.42 L64.664,103.92 L60.492,103.92 L60.492,114 L55.48,114 L55.48,91.32 Z M69.676,95.044 L66.26,95.044 L66.26,91.32 L78.104,91.32 L78.104,95.044 L74.716,95.044 L74.716,114 L69.676,114 L69.676,95.044 Z M79.168,91.32 L83.424,91.32 L84.768,104.536 L86.476,91.348 L89.808,91.348 L91.6,104.452 L92.972,91.32 L97.172,91.32 L94.456,114 L90.088,114 L88.156,100.308 L86.336,114 L81.912,114 L79.168,91.32 Z M101.6212,91.32 L107.3332,91.32 L111.5612,114 L106.9412,114 L106.1852,109.212 L102.8532,109.212 L102.0692,114 L97.3372,114 L101.6212,91.32 Z M105.7092,106.216 L104.5052,97.368 L103.3012,106.216 L105.7092,106.216 Z M113.8572,91.32 L120.1012,91.32 C122.583879,91.32 124.45986,91.7586623 125.7292,92.636 C126.99854,93.5133377 127.6332,95.0719888 127.6332,97.312 C127.6332,98.8240076 127.437202,100.027996 127.0452,100.924 C126.653198,101.82 125.925205,102.519997 124.8612,103.024 L127.9692,114 L122.7892,114 L120.2972,103.836 L118.8692,103.836 L118.8692,114 L113.8572,114 L113.8572,91.32 Z M120.2692,100.952 C121.277205,100.952 121.981865,100.686003 122.3832,100.154 C122.784535,99.6219973 122.9852,98.8240053 122.9852,97.76 C122.9852,96.7333282 122.798535,95.9633359 122.4252,95.45 C122.051865,94.9366641 121.407871,94.68 120.4932,94.68 L118.8692,94.68 L118.8692,100.952 L120.2692,100.952 Z M130.6572,91.32 L140.8492,91.32 L140.8492,94.736 L135.6692,94.736 L135.6692,100.364 L139.6172,100.364 L139.6172,103.836 L135.6692,103.836 L135.6692,110.612 L140.9052,110.612 L140.9052,114 L130.6572,114 L130.6572,91.32 Z" id="SOFTWARE"></path>
            <path d="M23.616,123.32 L27.9,123.32 L30.336,138.72 L32.604,123.32 L37.14,123.32 L32.996,146 L27.704,146 L23.616,123.32 Z M39.408,123.32 L49.6,123.32 L49.6,126.736 L44.42,126.736 L44.42,132.364 L48.368,132.364 L48.368,135.836 L44.42,135.836 L44.42,142.612 L49.656,142.612 L49.656,146 L39.408,146 L39.408,123.32 Z M51.924,123.32 L58.168,123.32 C60.6506791,123.32 62.5266603,123.758662 63.796,124.636 C65.0653397,125.513338 65.7,127.071989 65.7,129.312 C65.7,130.824008 65.504002,132.027996 65.112,132.924 C64.719998,133.82 63.9920053,134.519997 62.928,135.024 L66.036,146 L60.856,146 L58.364,135.836 L56.936,135.836 L56.936,146 L51.924,146 L51.924,123.32 Z M58.336,132.952 C59.344005,132.952 60.0486647,132.686003 60.45,132.154 C60.8513353,131.621997 61.052,130.824005 61.052,129.76 C61.052,128.733328 60.8653352,127.963336 60.492,127.45 C60.1186648,126.936664 59.4746712,126.68 58.56,126.68 L56.936,126.68 L56.936,132.952 L58.336,132.952 Z M68.752,123.32 L73.764,123.32 L73.764,146 L68.752,146 L68.752,123.32 Z M77.152,123.32 L86.952,123.32 L86.952,126.708 L82.164,126.708 L82.164,132.42 L86.336,132.42 L86.336,135.92 L82.164,135.92 L82.164,146 L77.152,146 L77.152,123.32 Z M89.332,123.32 L94.344,123.32 L94.344,146 L89.332,146 L89.332,123.32 Z M104.228,146.336 C101.763988,146.336 100.014005,145.68734 98.978,144.39 C97.9419948,143.09266 97.424,141.221346 97.424,138.776 L97.424,130.6 C97.424,128.098654 97.9373282,126.208673 98.964,124.93 C99.9906718,123.651327 101.745321,123.012 104.228,123.012 C106.598679,123.012 108.278662,123.581328 109.268,124.72 C110.257338,125.858672 110.752,127.473323 110.752,129.564 L110.752,131.524 L105.852,131.524 L105.852,129.256 C105.852,128.378662 105.758668,127.706669 105.572,127.24 C105.385332,126.773331 104.937337,126.54 104.228,126.54 C103.518663,126.54 103.052001,126.787331 102.828,127.282 C102.603999,127.776669 102.492,128.462662 102.492,129.34 L102.492,140.008 C102.492,140.904004 102.608665,141.589998 102.842,142.066 C103.075335,142.542002 103.53733,142.78 104.228,142.78 C104.91867,142.78 105.361999,142.542002 105.558,142.066 C105.754001,141.589998 105.852,140.904004 105.852,140.008 L105.852,137.628 L110.752,137.628 L110.752,139.588 C110.752,141.716011 110.257338,143.372661 109.268,144.558 C108.278662,145.743339 106.598679,146.336 104.228,146.336 Z M116.688,123.32 L122.4,123.32 L126.628,146 L122.008,146 L121.252,141.212 L117.92,141.212 L117.136,146 L112.404,146 L116.688,123.32 Z M120.776,138.216 L119.572,129.368 L118.368,138.216 L120.776,138.216 Z M128.56,127.044 L125.144,127.044 L125.144,123.32 L136.988,123.32 L136.988,127.044 L133.6,127.044 L133.6,146 L128.56,146 L128.56,127.044 Z M139.004,123.32 L144.016,123.32 L144.016,146 L139.004,146 L139.004,123.32 Z M153.9,146.336 C151.454654,146.336 149.709339,145.706006 148.664,144.446 C147.618661,143.185994 147.096,141.324012 147.096,138.86 L147.096,130.432 C147.096,127.967988 147.618661,126.11534 148.664,124.874 C149.709339,123.63266 151.454654,123.012 153.9,123.012 C156.364012,123.012 158.123328,123.637327 159.178,124.888 C160.232672,126.138673 160.76,127.986654 160.76,130.432 L160.76,138.86 C160.76,141.324012 160.232672,143.185994 159.178,144.446 C158.123328,145.706006 156.364012,146.336 153.9,146.336 Z M153.9,142.78 C154.609337,142.78 155.075999,142.542002 155.3,142.066 C155.524001,141.589998 155.636,140.941337 155.636,140.12 L155.636,129.2 C155.636,128.359996 155.524001,127.706669 155.3,127.24 C155.075999,126.773331 154.609337,126.54 153.9,126.54 C153.227997,126.54 152.780001,126.777998 152.556,127.254 C152.331999,127.730002 152.22,128.378663 152.22,129.2 L152.22,140.12 C152.22,140.941337 152.322666,141.589998 152.528,142.066 C152.733334,142.542002 153.190663,142.78 153.9,142.78 Z M163.812,123.32 L167.34,123.32 L171.988,134.24 L171.988,123.32 L176.132,123.32 L176.132,146 L172.744,146 L168.096,134.24 L168.096,146 L163.812,146 L163.812,123.32 Z" id="VERIFICATION"></path>
            <path d="M25.352,155.32 L27.48,155.32 L31.96,175.004 L36.524,155.32 L38.652,155.32 L39.212,178 L37.448,178 L37,159.94 L32.66,178 L31.288,178 L27.004,159.968 L26.556,178 L24.792,178 L25.352,155.32 Z M42.964,155.32 L51.168,155.32 L51.168,156.972 L45.12,156.972 L45.12,165.484 L50.048,165.484 L50.048,167.052 L45.12,167.052 L45.12,176.404 L51.224,176.404 L51.224,178 L42.964,178 L42.964,155.32 Z M54.108,155.32 L62.312,155.32 L62.312,156.972 L56.264,156.972 L56.264,165.484 L61.192,165.484 L61.192,167.052 L56.264,167.052 L56.264,176.404 L62.368,176.404 L62.368,178 L54.108,178 L54.108,155.32 Z M68.08,156.972 L63.796,156.972 L63.796,155.32 L74.38,155.32 L74.38,156.972 L70.208,156.972 L70.208,178 L68.08,178 L68.08,156.972 Z M82.416,178.28 C80.2319891,178.28 78.7200042,177.724672 77.88,176.614 C77.0399958,175.503328 76.62,173.902677 76.62,171.812 L76.62,155.32 L78.692,155.32 L78.692,171.868 C78.692,173.361341 78.9579973,174.518663 79.49,175.34 C80.0220027,176.161337 80.9973262,176.572 82.416,176.572 C83.7786735,176.572 84.7399972,176.156671 85.3,175.326 C85.8600028,174.495329 86.14,173.342674 86.14,171.868 L86.14,155.32 L88.184,155.32 L88.184,171.812 C88.184,173.865344 87.7500043,175.456661 86.882,176.586 C86.0139957,177.715339 84.5253439,178.28 82.416,178.28 Z M91.908,155.32 L97.34,155.32 C99.2626763,155.32 100.639329,155.842661 101.47,156.888 C102.300671,157.933339 102.716,159.417324 102.716,161.34 C102.716,163.094675 102.282004,164.522661 101.414,165.624 C100.545996,166.725339 99.1973425,167.276 97.368,167.276 L94.036,167.276 L94.036,178 L91.908,178 L91.908,155.32 Z M96.752,165.68 C98.152007,165.68 99.1459971,165.358003 99.734,164.714 C100.322003,164.069997 100.616,162.945341 100.616,161.34 C100.616,160.163994 100.504001,159.263336 100.28,158.638 C100.055999,158.012664 99.673336,157.569335 99.132,157.308 C98.590664,157.046665 97.8066718,156.916 96.78,156.916 L94.036,156.916 L94.036,165.68 L96.752,165.68 Z" id="MEETUP"></path>
        </g>
</svg>